<svg width="87" height="85" viewBox="0 0 87 85" fill="none" xmlns="http://www.w3.org/2000/svg">
<path d="M43.1814 22.8846C46.0289 22.8846 48.6109 24.0114 50.4786 25.8411C52.3463 27.6659 53.4996 30.1886 53.4996 32.9706C53.4996 35.7526 52.3463 38.2753 50.4786 40.1C48.6109 41.9248 46.0289 43.0515 43.1814 43.0515C40.334 43.0515 37.7519 41.9248 35.8842 40.1C34.0165 38.2753 32.8633 35.7526 32.8633 32.9706C32.8633 30.1886 34.0165 27.6659 35.8842 25.8411C37.7519 24.0164 40.334 22.8846 43.1814 22.8846ZM51.2543 45.4496C50.8869 45.2103 50.7848 44.7217 51.0348 44.3627C51.2798 44.0038 51.7799 43.909 52.1473 44.1484C54.3569 45.5942 56.1837 47.5585 57.4441 49.8619C58.6637 52.0805 59.3526 54.6082 59.3526 57.2805V60.8552C59.3526 61.2889 58.9903 61.6429 58.5464 61.6429H27.8063C27.3623 61.6429 27 61.2889 27 60.8552V57.2805C27 54.5932 27.6991 52.0506 28.9289 49.827C30.2046 47.5186 32.0468 45.5493 34.2717 44.1085C34.6442 43.8692 35.1392 43.9689 35.3841 44.3278C35.6291 44.6918 35.527 45.1754 35.1596 45.4147C33.1541 46.716 31.4906 48.4908 30.3424 50.5698C29.2402 52.5691 28.6125 54.8575 28.6125 57.2805V60.0675H57.7401V57.2805C57.7401 54.8675 57.1175 52.589 56.0255 50.5998C54.8876 48.5257 53.2393 46.7558 51.2492 45.4546L51.2543 45.4496ZM49.3407 26.9479C47.7639 25.4124 45.5849 24.4551 43.1814 24.4551C40.7779 24.4551 38.599 25.4074 37.0222 26.9479C35.4454 28.4885 34.4707 30.6124 34.4707 32.9656C34.4707 35.3138 35.4454 37.4427 37.0222 38.9832C38.599 40.5238 40.7728 41.4761 43.1814 41.4761C45.5849 41.4761 47.7639 40.5238 49.3407 38.9832C50.9175 37.4427 51.8921 35.3138 51.8921 32.9656C51.8921 30.6174 50.9175 28.4885 49.3407 26.9479Z" fill="#011627"/>
</svg>
