<svg width="48" height="39" viewBox="0 0 48 39" fill="none" xmlns="http://www.w3.org/2000/svg">
<g clip-path="url(#clip0_31_83)">
<path fill-rule="evenodd" clip-rule="evenodd" d="M12.6602 9.28163L45.4573 9.11133L40.0614 25.8864H12.6602V9.28163Z" fill="#2B2A29" stroke="#2B2A29" stroke-width="7.99226"/>
<path d="M12.6602 9.28163C11.4798 6.64189 10.2994 4.08731 9.62494 2.81002C9.03476 1.53272 8.95045 1.44757 7.51716 1.44757C5.99955 1.44757 2.96433 1.53272 0.0134277 1.53272" stroke="#2B2A29" stroke-width="6.39358"/>
<path d="M18.3933 37.7227C20.3024 37.7227 21.8501 36.1596 21.8501 34.2314C21.8501 32.3033 20.3024 30.7402 18.3933 30.7402C16.4842 30.7402 14.9365 32.3033 14.9365 34.2314C14.9365 36.1596 16.4842 37.7227 18.3933 37.7227Z" stroke="#2B2A29" stroke-width="3"/>
<path d="M34.0752 37.7227C35.9843 37.7227 37.532 36.1596 37.532 34.2314C37.532 32.3033 35.9843 30.7402 34.0752 30.7402C32.1661 30.7402 30.6184 32.3033 30.6184 34.2314C30.6184 36.1596 32.1661 37.7227 34.0752 37.7227Z" stroke="#2B2A29" stroke-width="3"/>
</g>
<defs>
<clipPath id="clip0_31_83">
<rect width="48" height="39" fill="white"/>
</clipPath>
</defs>
</svg>
