<svg width="44" height="44" viewBox="0 0 44 44" fill="none" xmlns="http://www.w3.org/2000/svg">
<path d="M24.6127 14.3635C23.198 12.9488 21.3455 12.2415 19.4881 12.2415C17.6355 12.2415 15.7781 12.9488 14.3634 14.3635C12.9487 15.7782 12.2414 17.6356 12.2414 19.4882C12.2414 21.3456 12.9487 23.1982 14.3634 24.6129C15.7781 26.0324 17.6355 26.7397 19.4881 26.7397C21.3455 26.7397 23.198 26.0324 24.6127 24.6129C26.0323 23.1982 26.7396 21.3456 26.7396 19.4882C26.7396 17.6356 26.0323 15.7782 24.6127 14.3635ZM16.4951 24.4878C16.3988 24.4108 16.3411 24.2905 16.3411 24.1605C16.3411 23.9248 16.5288 23.7371 16.7645 23.7371C16.9185 23.7371 16.9859 23.7852 17.0436 23.8382C17.1399 23.9151 17.1976 24.0354 17.1976 24.1654C17.1976 24.4011 17.0099 24.5888 16.7742 24.5888C16.6202 24.5888 16.5528 24.5407 16.4951 24.4878ZM15.961 23.0153C16.1294 23.1789 16.1246 23.4484 15.961 23.612C15.7973 23.7804 15.5279 23.7756 15.3643 23.612C14.2239 22.4716 13.6561 20.9799 13.6561 19.4882C13.6561 17.9965 14.2239 16.5048 15.3643 15.3644C15.5279 15.2008 15.7973 15.196 15.961 15.3644C16.1246 15.528 16.1294 15.7975 15.961 15.9611C14.9938 16.9331 14.5078 18.213 14.5078 19.4882C14.5078 20.7633 14.9938 22.0433 15.961 23.0153ZM30.1849 31.5853L31.5852 30.185L27.625 26.2249L26.2247 27.6251L30.1849 31.5853ZM32.485 30.4834L30.4833 32.4851C30.3197 32.6487 30.0502 32.6487 29.8818 32.4851L25.3249 27.9283C25.1613 27.7598 25.1613 27.4904 25.3249 27.3268L26.0274 26.6242L24.9063 25.5079C23.3713 26.8937 21.4273 27.5866 19.4881 27.5866C17.419 27.5866 15.345 26.7975 13.7619 25.2144C12.1836 23.6361 11.3896 21.5621 11.3896 19.4882C11.3896 17.4191 12.1836 15.3452 13.7619 13.762C15.345 12.1837 17.419 11.3898 19.4881 11.3898C21.562 11.3898 23.6359 12.1837 25.2142 13.762C26.7973 15.3452 27.5865 17.4191 27.5865 19.4882C27.5865 21.4274 26.8936 23.3714 25.5078 24.9064L26.6241 26.0276L27.3267 25.325C27.4951 25.1566 27.7597 25.1566 27.9281 25.325L32.485 29.8819C32.6534 30.0503 32.6534 30.315 32.485 30.4834Z" fill="#011627"/>
</svg>
