<svg width="72" height="72" viewBox="0 0 72 72" fill="none" xmlns="http://www.w3.org/2000/svg">
<g clip-path="url(#clip0_31_64)">
<rect width="72" height="72" rx="10" fill="white"/>
<path d="M39 15.2569C36.5 4.25689 5.5 14.2569 -3.5 12.2569H-5V37.2568C-1.16667 38.4235 6 37.2568 17.5 39.7568C29 42.2568 24.5 43.2568 35.5 37.2568C46.5 31.2568 41.5 26.2569 39 15.2569Z" fill="black" fill-opacity="0.2"/>
<path d="M14.3616 23.0082C9.88074 26.5504 -13.5192 19.466 -13.5192 19.466L-18 3.27312C-18 3.27312 21.8296 -6.3414 30.7913 3.27312C39.753 12.8876 18.8424 19.466 14.3616 23.0082Z" fill="#4A4A4A" fill-opacity="0.4"/>
<g opacity="0.1">
<path d="M-15 40.7137C-14.1667 37.8803 -11.3 32.2137 -6.5 32.2137C-1.7 32.2137 5.16667 28.8803 8 27.2137C14.8333 24.8803 15.5 33.2136 21.5 40.7137C27.5 48.2137 31.5 57.2136 32.5 59.2136C32.7611 59.8849 33.1264 60.431 33.5359 60.8687C39.6976 62.3213 35.8887 63.3842 33.5359 60.8687C31.1857 60.3147 27.3851 59.7041 21.5 59.2136C-2.5 57.2136 30 61.2136 14 67.7136C-2 74.2136 -18 55.7136 -18 55.7136L-14.5 41.2136L-15 40.7137Z" fill="#382D2D"/>
</g>
<path d="M24 1C22.4379 0.414213 24.6516 -0.414213 23.0895 -1C21.5274 -1.58579 23.8524 -15 23.8524 -15L59.5895 -9C76.2562 -9.66667 109.79 -11 110.59 -11C111.39 -11 96.9229 20 89.5895 35.5L39.0895 55L34.0895 52.5C34.0895 52.5 29.1566 50.964 26.5895 49C23.1462 46.3656 20.5895 41 20.0895 40C19.5895 39 21.3118 40.2918 22.0895 40.5C22.7808 40.6851 23.1412 40.9206 23.8524 41C24.3325 41.0536 24.6207 41.1166 25.0895 41C25.5132 40.8946 25.6882 40.672 26.0895 40.5C26.6571 40.2568 27.0204 40.2396 27.5895 40C28.6389 39.5582 29.1057 39.073 30.0895 38.5C32.2037 37.2687 34.4229 36.3333 35.5895 35.5C36.7562 34.6667 39.0895 32.9 39.0895 32.5C39.0895 32.5 39.7562 31.3333 40.0895 31C40.4229 30.6667 40.3943 30.0858 40.5895 29.5C40.7848 28.9142 41.0422 28.6157 41.0895 28C41.1513 27.1973 40.7681 26.785 40.5895 26C40.3687 25.0292 40.3432 24.4628 40.0895 23.5C39.6644 21.8868 38.7437 21.1612 38.5895 19.5C38.5354 18.9167 38.6724 18.5799 38.5895 18C38.4043 16.7033 37.314 16.2905 37.0895 15C36.9557 14.2305 37.3481 13.737 37.0895 13C36.6756 11.8202 35.5794 11.7638 34.5895 11C33.8166 10.4036 32.7995 11.0603 32 10.5C31.4235 10.096 31.0895 10 31.0895 8.5V7.5V5.5C31.0895 5.5 30.5981 3.92033 30.0895 3C29.749 2.38381 28.5 2.5 28 2C27.5 1.5 25.5621 1.58579 24 1Z" fill="#716F6F"/>
<path d="M7.04507 56.1568C9.05295 38.5234 107.941 41.3829 123 39C121.494 52.9796 117.98 81.2247 115.972 82.3685C113.965 83.5122 83.3444 82.845 68.2854 82.3685C55.376 80.6176 21 86.6512 10.5 82.3685C2.95639e-05 78.0857 6.42233 61.6257 7.04507 56.1568Z" fill="#D9D9D9" fill-opacity="0.3"/>
<circle cx="36.5" cy="36.5" r="29.5" fill="url(#paint0_linear_31_64)"/>
<path d="M37.2101 11C37.2101 11.5141 37.2101 12.7286 37.2101 12.7286C37.2101 12.7286 34.4874 16.6737 37.2101 17.5829C40.8442 18.7965 38.0177 21.6281 36.8063 22.8417C35.595 24.0553 37.2101 26.0779 37.2101 27.2914M37.2101 27.2914C37.2101 30.7196 37.2101 32.6206 37.2101 37V31.3367V27.2914Z" stroke="url(#paint1_linear_31_64)"/>
<path d="M60.3602 46.0297C59.8771 45.8539 58.7358 45.4385 58.7358 45.4385C58.7358 45.4385 55.9599 41.5307 54.1743 43.7782C51.791 46.7781 50.0968 43.1535 49.3707 41.6002C48.6447 40.0468 46.1916 40.8728 45.0512 40.4577M45.0512 40.4577C41.8298 39.2852 40.0435 38.635 35.9282 37.1372L41.2499 39.0741L45.0512 40.4577Z" stroke="url(#paint2_linear_31_64)"/>
<circle cx="36.5" cy="36.5" r="2.5" fill="black"/>
</g>
<defs>
<linearGradient id="paint0_linear_31_64" x1="37.5946" y1="-0.395844" x2="42.2619" y2="93.5202" gradientUnits="userSpaceOnUse">
<stop/>
<stop offset="0.609992" stop-color="#767676" stop-opacity="0.455522"/>
<stop offset="1" stop-color="#D9D9D9" stop-opacity="0"/>
</linearGradient>
<linearGradient id="paint1_linear_31_64" x1="10.5" y1="42.1071" x2="14.9643" y2="0.897921" gradientUnits="userSpaceOnUse">
<stop/>
<stop offset="0.542709" stop-color="#6A6A6A"/>
<stop offset="0.605088" stop-color="#BABABA"/>
<stop offset="1" stop-color="white"/>
</linearGradient>
<linearGradient id="paint2_linear_31_64" x1="40.2644" y1="10.2911" x2="77.4615" y2="28.5806" gradientUnits="userSpaceOnUse">
<stop/>
<stop offset="0.542709" stop-color="#6A6A6A"/>
<stop offset="0.605088" stop-color="#BABABA"/>
<stop offset="1" stop-color="white"/>
</linearGradient>
<clipPath id="clip0_31_64">
<rect width="72" height="72" rx="10" fill="white"/>
</clipPath>
</defs>
</svg>
