<svg width="48" height="27" viewBox="0 0 48 27" fill="none" xmlns="http://www.w3.org/2000/svg">
<g clip-path="url(#clip0_31_21)">
<path fill-rule="evenodd" clip-rule="evenodd" d="M46.2798 19.4032H46.4192C46.4904 19.4032 46.5665 19.4179 46.5665 19.495C46.5665 19.5913 46.4892 19.597 46.402 19.597H46.2798V19.6778H46.3978L46.5759 19.9493H46.6909L46.4985 19.6733C46.5975 19.6616 46.6741 19.613 46.6741 19.5012C46.6741 19.3772 46.5948 19.3229 46.435 19.3229H46.1776V19.9493H46.28L46.2798 19.4032ZM46.3864 13.9949C46.3864 6.89302 40.1745 1.13588 32.5119 1.13588C29.2809 1.13134 26.1503 2.17634 23.6644 4.08921C21.2603 2.23636 18.1623 1.13588 14.7915 1.13588C7.12889 1.13588 0.916748 6.89325 0.916748 13.9949C0.916748 21.0965 7.12889 26.8537 14.7915 26.8537C18.1626 26.8537 21.2605 25.753 23.6644 23.9003C26.1504 25.8131 29.2809 26.8581 32.5119 26.8537C40.1748 26.8537 46.3864 21.0965 46.3864 13.9949Z" fill="black"/>
<path fill-rule="evenodd" clip-rule="evenodd" d="M45.3677 13.9949C45.3677 7.41482 39.612 2.08043 32.5122 2.08043C29.431 2.08043 26.6283 3.07956 24.4141 4.75459C26.1025 6.26549 27.3919 8.15783 28.0835 10.2965H27.0155C26.3463 8.395 25.1703 6.71723 23.642 5.37091C22.1034 6.72904 20.9518 8.41926 20.2901 10.2905L19.2216 10.2908C19.9038 8.19122 21.1541 6.28827 22.8536 4.7628C20.645 3.10512 17.8549 2.0802 14.7915 2.0802C7.69191 2.0802 1.93616 7.41459 1.93616 13.9946C1.93616 20.5747 7.69191 25.9086 14.7915 25.9086C17.8549 25.9086 20.6453 24.8842 22.8536 23.226C21.154 21.7008 19.9037 19.798 19.2216 17.6985H20.2901C20.9515 19.5699 22.1031 21.2601 23.642 22.6179C25.1703 21.272 26.3463 19.5943 27.0155 17.6928H28.0835C27.3916 19.8314 26.1025 21.7236 24.4141 23.2345C26.6283 24.9095 29.431 25.9086 32.5122 25.9086C39.6117 25.9089 45.3677 20.5749 45.3677 13.9949Z" fill="white"/>
<path fill-rule="evenodd" clip-rule="evenodd" d="M35.9192 16.7862L36.8069 12.3772H37.9293L38.0468 12.8118C38.2473 12.5943 38.6332 12.3772 39.2859 12.3772L38.9342 13.5258C38.6162 13.5258 38.013 13.4485 37.6281 14.7678L37.2259 16.7862H35.9192ZM18.7182 11.2571H20.0118L19.7463 12.4251H20.4426L20.2106 13.3779H19.5473L19.1825 15.1605C19.116 15.4988 19.1495 15.806 19.8958 15.6985L19.8128 16.5896C19.5308 16.7586 19.1495 16.8049 18.851 16.8049C18.5527 16.8049 17.5739 16.6355 17.8232 15.4371L18.7182 11.2571ZM24.3235 14.8224C24.4725 14.1152 24.821 12.3635 22.5492 12.3635C20.4596 12.3635 20.1943 14.2848 20.1445 14.561C20.095 14.8379 20.0615 16.7894 22.3002 16.7894C22.8474 16.8049 23.6435 16.7435 23.9587 16.5896L24.1575 15.6832C23.9587 15.7291 23.2124 15.7907 22.6982 15.7907C22.1841 15.7907 21.3553 15.8215 21.5041 14.8224H24.3235Z" fill="black"/>
<path fill-rule="evenodd" clip-rule="evenodd" d="M21.5872 14.0234H23.1957C23.2787 13.5929 23.1295 13.2242 22.6155 13.2242C22.1012 13.224 21.7367 13.4701 21.5872 14.0234Z" fill="white"/>
<path fill-rule="evenodd" clip-rule="evenodd" d="M17.4914 13.4084L17.7897 12.517C17.1759 12.302 16.6954 12.3479 16.5126 12.3479C16.3304 12.3479 14.7775 12.3303 14.5395 13.3931C14.357 14.2076 14.6789 14.545 14.9871 14.6685C15.4846 14.8682 15.7668 15.0529 16.0321 15.1759C16.3602 15.3279 16.3001 15.8367 15.8661 15.8367C15.6668 15.8367 14.8046 15.929 14.158 15.7292L13.9758 16.6357C14.5728 16.7895 15.0533 16.7895 15.5013 16.7895C15.8161 16.7895 17.3584 16.8667 17.5739 15.5448C17.6794 14.9002 17.3749 14.6073 17.1264 14.469C16.8779 14.3151 16.4631 14.1003 16.1976 13.9923C15.9324 13.885 15.7333 13.4701 16.2144 13.3473C16.5129 13.316 17.1264 13.316 17.4914 13.4084ZM9.10077 16.7893L10.1786 11.4718H8.05621L6.48039 14.6993L6.23188 11.4718H4.15903L3.04797 16.7893H4.34129L5.13708 12.9473L5.48559 16.7893H6.7129L8.52049 13.0395L7.75745 16.7893H9.10077ZM10.5266 12.5017L10.3273 13.4543C10.6428 13.4237 11.4884 13.3009 11.9359 13.316C12.3839 13.3315 12.8812 13.2699 12.7319 13.9305C12.4002 13.9617 10.0786 13.6232 9.71405 15.4672C9.56479 16.3745 10.4101 16.8354 11.0736 16.8046C11.7371 16.7738 11.9194 16.6966 12.1517 16.5432L12.3177 16.7888H13.528L14.0423 14.3916C14.175 13.7924 14.39 12.3474 12.2179 12.3474C11.8202 12.3634 11.3726 12.3479 10.5266 12.5017Z" fill="black"/>
<path fill-rule="evenodd" clip-rule="evenodd" d="M12.5167 14.8224C12.3012 14.7916 11.8202 14.6685 11.4054 14.9299C10.9906 15.1912 10.8749 15.6521 11.3061 15.806C11.7212 15.9539 12.3337 15.6989 12.4172 15.299L12.5167 14.8224Z" fill="white"/>
<path fill-rule="evenodd" clip-rule="evenodd" d="M31.4869 12.7013C31.1549 12.5169 30.9231 12.4865 30.4921 12.4865C30.061 12.4865 29.099 12.8684 28.9167 13.9463C28.7012 15.2219 29.6465 15.8519 30.9728 15.4371L31.3544 16.513C30.9233 16.6972 30.4923 16.7894 29.779 16.7894C28.436 16.7894 26.9769 15.6832 27.6397 13.4391C28.1288 11.7855 29.6635 11.1799 30.5583 11.2105C31.6196 11.247 32.0014 11.5794 32.3329 11.9177L31.4869 12.7013ZM42.5146 12.886C42.2654 12.7169 42.1164 12.3635 41.5031 12.3635C40.7901 12.3635 39.679 12.2405 39.0487 14.2383C38.6278 15.5741 39.4797 16.7894 40.4083 16.7894C40.8398 16.7743 41.2708 16.6052 41.5359 16.4363L41.7023 16.7894H43.0949L44.2225 11.1957H42.8627L42.5146 12.886Z" fill="black"/>
<path fill-rule="evenodd" clip-rule="evenodd" d="M42.0503 14.684C42.1831 14.2845 42.1104 13.7853 41.9671 13.6082C41.5693 13.1165 40.6543 13.5052 40.3752 14.4687C40.193 15.0987 40.5907 15.5754 41.0385 15.5754C41.5198 15.5754 41.8178 15.2218 42.0503 14.684Z" fill="white"/>
<path fill-rule="evenodd" clip-rule="evenodd" d="M32.4154 12.5018L32.2166 13.4544C32.5316 13.4238 33.3774 13.301 33.8247 13.3161C34.273 13.3316 34.7705 13.27 34.6207 13.9306C34.2892 13.9618 31.9678 13.6233 31.6031 15.4673C31.4536 16.3746 32.2991 16.8355 32.9626 16.8047C33.6262 16.7739 33.8084 16.6967 34.0407 16.5433L34.2067 16.7889H35.4165L35.9313 14.3917C36.0635 13.7925 36.2791 12.3475 34.1067 12.3475C33.7089 12.3635 33.2614 12.348 32.4154 12.5018Z" fill="black"/>
<path fill-rule="evenodd" clip-rule="evenodd" d="M34.4054 14.8224C34.1899 14.7916 33.7089 14.6685 33.2942 14.9299C32.8794 15.1912 32.7636 15.6521 33.1951 15.806C33.6104 15.9539 34.2227 15.6989 34.3059 15.299L34.4054 14.8224Z" fill="white"/>
<path fill-rule="evenodd" clip-rule="evenodd" d="M24.3607 16.7894L25.2395 12.4249H26.3508L26.4668 12.8552C26.6656 12.6397 27.0469 12.4249 27.6934 12.4249L27.3619 13.5775C27.0469 13.5775 26.4331 13.4855 26.0521 14.7916L25.6543 16.7894H24.3607Z" fill="black"/>
</g>
<defs>
<clipPath id="clip0_31_21">
<rect width="47.4756" height="26" fill="white" transform="translate(0.218506 0.994629)"/>
</clipPath>
</defs>
</svg>
