<svg width="16" height="18" viewBox="0 0 16 18" fill="none" xmlns="http://www.w3.org/2000/svg">
<g clip-path="url(#clip0_31_98)">
<path d="M12.2789 17.345C13.1642 17.1219 14.1306 16.8191 14.4559 16.6628C14.6745 16.5577 14.7053 16.5223 14.6296 16.4631C14.0817 16.0339 10.2271 13.303 10.1931 13.32C10.1682 13.3324 10.1053 13.5271 10.0533 13.7526C9.95055 14.1977 9.85377 14.2995 9.53366 14.2994C9.27009 14.2993 9.09628 14.1799 8.84363 13.8254C8.73349 13.6708 8.55543 13.4533 8.44793 13.3419C8.34043 13.2306 8.1232 12.9524 7.96518 12.7237C7.80715 12.4951 7.52945 12.1183 7.34804 11.8865C6.93219 11.3551 6.44829 10.7072 6.26524 10.4368C6.18774 10.3223 5.99652 10.089 5.84032 9.91826C5.68412 9.74755 5.48496 9.49465 5.39775 9.35627C5.31055 9.2179 5.06056 8.88971 4.84223 8.62701C4.6239 8.3643 4.36154 8.0157 4.25923 7.85242C4.15692 7.68913 3.96902 7.42357 3.84169 7.26232C3.54891 6.89156 3.20804 6.34054 3.14913 6.14289C3.11323 6.02237 3.14346 5.96087 3.2955 5.84517C3.50052 5.68917 3.51399 5.68921 4.16622 5.84812C4.38682 5.90186 4.58162 5.93428 4.5991 5.92015C4.63053 5.89473 3.13792 1.21675 3.08458 1.17369C3.04546 1.14206 1.29786 2.32893 1.29786 2.38712C1.29786 2.41351 1.14575 2.55749 0.959847 2.70707C0.773944 2.85666 0.510096 3.12242 0.373529 3.29767C0.158255 3.57392 0.115009 3.68975 0.0483597 4.16879C-0.163197 5.68914 0.332745 7.93664 1.27399 9.72297C1.78069 10.6846 2.0851 11.1667 2.44493 11.5772C2.60764 11.7628 2.82658 12.0538 2.93147 12.2238C3.49502 13.1372 5.27107 14.8023 6.51042 15.5794C7.36563 16.1156 9.18055 17.0745 9.59999 17.2119C10.8267 17.6135 11.1501 17.6296 12.279 17.3451L12.2789 17.345ZM15.4075 15.6216C15.6735 15.0931 15.6809 15.0623 15.564 14.9731C15.4652 14.8977 12.3511 12.705 11.9213 12.4082C11.8209 12.3389 11.7199 12.3645 11.0952 12.618C10.4958 12.8612 10.3987 12.9187 10.4798 12.9819C10.7763 13.2128 15.0914 16.2063 15.1082 16.1927C15.1193 16.1838 15.254 15.9268 15.4075 15.6216ZM5.83598 5.51511C6.13067 5.33364 6.37092 5.1819 6.36986 5.17792C6.28996 4.87666 5.12534 1.19366 5.10477 1.17696C5.06481 1.14465 3.57823 0.976079 3.54809 1.00045C3.52924 1.01569 3.93734 2.29152 5.0577 5.72C5.13707 5.96289 5.08776 5.97588 5.83598 5.51511Z" fill="black"/>
</g>
<defs>
<clipPath id="clip0_31_98">
<rect width="16" height="17" fill="white" transform="translate(0 0.998047)"/>
</clipPath>
</defs>
</svg>
