<svg width="18" height="18" viewBox="0 0 18 18" fill="none" xmlns="http://www.w3.org/2000/svg">
<path d="M13.557 17.345C14.5344 17.1219 15.6014 16.8191 15.9605 16.6628C16.2018 16.5577 16.2358 16.5223 16.1523 16.4631C15.5474 16.0339 11.2915 13.303 11.254 13.32C11.2266 13.3324 11.1571 13.5271 11.0997 13.7526C10.9862 14.1977 10.8794 14.2995 10.526 14.2994C10.235 14.2993 10.043 14.1799 9.7641 13.8254C9.6425 13.6708 9.4459 13.4533 9.32721 13.3419C9.20852 13.2306 8.96868 12.9524 8.79421 12.7237C8.61974 12.4951 8.31313 12.1183 8.11284 11.8865C7.65371 11.3551 7.11945 10.7072 6.91734 10.4368C6.83178 10.3223 6.62066 10.089 6.4482 9.91826C6.27574 9.74755 6.05585 9.49465 5.95957 9.35627C5.86328 9.2179 5.58728 8.88971 5.34622 8.62701C5.10517 8.3643 4.8155 8.0157 4.70254 7.85242C4.58958 7.68914 4.38213 7.42357 4.24154 7.26232C3.91829 6.89156 3.54194 6.34054 3.4769 6.14289C3.43726 6.02237 3.47064 5.96087 3.63851 5.84517C3.86486 5.68917 3.87974 5.68921 4.59985 5.84812C4.84342 5.90186 5.05849 5.93428 5.07779 5.92015C5.11249 5.89473 3.46453 1.21675 3.40564 1.17369C3.36244 1.14206 1.43295 2.32893 1.43295 2.38712C1.43295 2.41351 1.265 2.55749 1.05975 2.70707C0.854499 2.85666 0.563188 3.12242 0.412406 3.29767C0.174727 3.57392 0.12698 3.68975 0.0533931 4.16879C-0.180183 5.68914 0.367378 7.93664 1.40659 9.72297C1.96603 10.6846 2.30212 11.1667 2.69941 11.5772C2.87905 11.7628 3.12078 12.0538 3.23659 12.2238C3.85879 13.1372 5.81969 14.8023 7.18804 15.5794C8.13227 16.1156 10.1361 17.0745 10.5992 17.2119C11.9536 17.6135 12.3106 17.6296 13.557 17.3451L13.557 17.345ZM17.0112 15.6216C17.3048 15.0931 17.313 15.0623 17.1839 14.9731C17.0748 14.8977 13.6366 12.705 13.1621 12.4082C13.0512 12.3389 12.9397 12.3645 12.25 12.618C11.5882 12.8612 11.481 12.9187 11.5706 12.9819C11.8979 13.2128 16.6621 16.2063 16.6807 16.1927C16.6929 16.1838 16.8417 15.9268 17.0112 15.6216ZM6.4434 5.51511C6.76877 5.33364 7.03402 5.1819 7.03285 5.17792C6.94463 4.87666 5.65881 1.19366 5.63609 1.17696C5.59197 1.14465 3.95066 0.976079 3.91739 1.00045C3.89657 1.01569 4.34714 2.29152 5.58412 5.72C5.67175 5.96289 5.61731 5.97588 6.4434 5.51511Z" fill="white"/>
</svg>
